<?xml version="1.0" encoding="UTF-8"?>
<svg fill="#767779" width="100pt" height="100pt" version="1.1" viewBox="0 0 100 100" xmlns="http://www.w3.org/2000/svg">
 <g>
  <path d="m92.75 59.609-10.5 4.1992v12.84l10.5-4.1992z"/>
  <path d="m82.25 47.559-0.62891 0.25c-0.22266 0.082031-0.46094 0.082031-0.67969 0l-0.62891-0.25v7l-8.8086 3.5195 9.8086 3.9219 9.8086-3.9219-8.8086-3.5195v-7z"/>
  <path d="m17.75 63.801-10.5-4.1992v12.84l10.5 4.1992z"/>
  <path d="m19.75 47.559-0.62891 0.25c-0.22266 0.082031-0.46094 0.082031-0.67969 0l-0.62891-0.25v7l-8.8711 3.5625 9.8086 3.8789 9.8086-3.9219-8.8086-3.4766z"/>
  <path d="m51 16.93v12.84l9.3984-3.7578 1.75 1.457 5.6016 4.6602 2 1.6719v7.3984l10.5 4.1992v-12.84l-5.25-2.0977-5.25-2.1016v2.8398l-2-1.668-4.25-3.543-2-1.668v-11.59z"/>
  <path d="m40.191 11.25 9.8086 3.9219 9.8086-3.9219-9.8086-3.9219z"/>
  <path d="m19.75 32.559v12.84l10.5-4.1992v-7.3984l2-1.6719 5.6016-4.6602 1.75-1.457 9.3984 3.7578v-12.84l-10.5-4.1992v11.59l-2 1.668-4.25 3.543-2 1.668v-2.8398z"/>
  <path d="m17.75 42.398v-9.8398l-10.5-4.1992v12.84l10.5 4.1992z"/>
  <path d="m28.559 26.879-9.8086-3.918-9.8086 3.918 9.8086 3.9219z"/>
  <path d="m92.75 28.359-5.25 2.1016-5.25 2.0977v12.84l10.5-4.1992z"/>
  <path d="m71.441 26.879 9.8086 3.9219 9.8086-3.9219-9.8086-3.918z"/>
  <path d="m51.102 51.102c-0.41406 0.42578-0.91406 0.76563-1.4609 1 0.007813 0.16797 0.039063 0.33594 0.089844 0.5v0.14063-0.003907c0.039062 0.12109 0.089843 0.23438 0.14844 0.33984l0.078125 0.12891 0.003907 0.003907c0.085937 0.14844 0.1875 0.28516 0.30859 0.41016l0.57812 0.57031h0.003906c0.71094-0.33594 1.3594-0.78906 1.918-1.3398 0.70312-0.70312 1.2383-1.5547 1.5703-2.4922 0.49609-1.4297 0.49609-2.9805 0-4.4102-0.070313-0.19922-0.14844-0.39844-0.23047-0.60156v0.003906c-0.33203-0.75-0.80078-1.4258-1.3789-2l-5.7305-5.9023c-1.25-1.2773-2.9609-2-4.75-2-2.7617-0.050781-5.2734 1.5898-6.3359 4.1406-1.0586 2.5508-0.44922 5.4883 1.5352 7.4102l5.8086 5.8203h0.003907c0.003906-0.078124 0.003906-0.15234 0-0.23047v-0.41016-0.39844-0.39844-0.42187c0-0.14063 0-0.25 0.050781-0.37891 0.050781-0.12891 0-0.28906 0.078125-0.42969s0-0.23828 0.078125-0.35938v-0.10938l-4.3906-4.3789v-0.003907c-1.6836-1.6836-1.6836-4.418 0-6.1016 1.6875-1.6836 4.418-1.6836 6.1016 0l5.9219 5.8008c0.80859 0.80859 1.2617 1.9023 1.2617 3.0469 0 1.1406-0.45312 2.2383-1.2617 3.043z"/>
  <path d="m64.52 57.801c0-1.7891-0.72266-3.5-2-4.75l-5.8086-5.8203c0.089843 1.0547-0.003907 2.1172-0.28125 3.1406l4.3906 4.3789c1.6836 1.6836 1.6836 4.4141 0 6.1016-1.6836 1.6836-4.4141 1.6836-6.1016 0l-5.8203-5.8516c-0.80859-0.80859-1.2617-1.9023-1.2617-3.0469 0-1.1406 0.45312-2.2383 1.2617-3.043 0.41406-0.42969 0.91406-0.76953 1.4609-1-0.027344-0.57031-0.26562-1.1133-0.66797-1.5195l-0.57812-0.57031h-0.003906c-3.3359 1.543-4.8086 5.4883-3.3008 8.8398 0.33203 0.74609 0.80078 1.4258 1.3828 2l5.8594 5.8516c1.25 1.2773 2.9609 1.9961 4.75 2 3.707-0.007813 6.7148-3.0117 6.7188-6.7227z"/>
  <path d="m71.352 73.09 8.8984 3.5586v-12.84l-10.5-4.1992v12.211l-1.9492 1.6211-4.3008 3.5898v2.6094l6.1016-5.0898z"/>
  <path d="m30.391 74.539 6.1094 5.1016v-2.6094l-4.3086-3.5898-1.9414-1.6211v-12.219l-10.5 4.1992v12.84l8.8906-3.5508z"/>
  <path d="m61.5 75.23-10.5 4.1992v12.84l10.5-4.1992z"/>
  <path d="m49 79.43-10.5-4.1992v12.84l10.5 4.1992z"/>
  <path d="m59.809 73.75-9.8086-3.9219-9.8086 3.9219 9.8086 3.9219z"/>
 </g>
</svg>
