<?xml version="1.0" encoding="UTF-8"?>
<svg fill="#F3AD56" width="100pt" height="100pt" version="1.1" viewBox="0 0 100 100" xmlns="http://www.w3.org/2000/svg">
 <g>
  <path d="m72.332 78.582c0.30469-0.30469 0.70703-0.45703 1.1055-0.45703s0.80078 0.15234 1.1055 0.45703l5.1445 5.1445 0.91406-0.91406-5.1445-5.1445c-0.60938-0.60938-0.60938-1.5977 0-2.2109l5.1445-5.1445-0.91406-0.91406-5.1445 5.1445c-0.60938 0.60938-1.5977 0.60938-2.2109 0l-5.1445-5.1445-0.91406 0.91406 5.1445 5.1445c0.60938 0.60938 0.60938 1.5977 0 2.2109l-5.1445 5.1445 0.91406 0.91406z"/>
  <path d="m56.25 76.562c0 9.4766 7.7109 17.188 17.188 17.188s17.188-7.7109 17.188-17.188-7.7109-17.188-17.188-17.188-17.188 7.7109-17.188 17.188zm6.707-5.1445c-0.60938-0.60938-0.60938-1.5977 0-2.2109l3.125-3.125c0.60938-0.60938 1.5977-0.60938 2.2109 0l5.1445 5.1445 5.1445-5.1445c0.60938-0.60938 1.5977-0.60938 2.2109 0l3.125 3.125c0.60938 0.60938 0.60938 1.5977 0 2.2109l-5.1445 5.1445 5.1445 5.1445c0.60938 0.60938 0.60938 1.5977 0 2.2109l-3.125 3.125c-0.30469 0.30469-0.70703 0.45703-1.1055 0.45703s-0.80078-0.15234-1.1055-0.45703l-5.1445-5.1445-5.1445 5.1445c-0.60938 0.60938-1.5977 0.60938-2.2109 0l-3.125-3.125c-0.60938-0.60938-0.60938-1.5977 0-2.2109l5.1445-5.1445z"/>
  <path d="m53.125 76.562c0-9.5859 6.6797-17.621 15.625-19.746v-50.566h-59.375v87.5h53.289c-5.7188-3.5977-9.5391-9.9453-9.5391-17.188zm7.8125-28.125h-28.125v-3.125h28.125zm-12.5-10.938v3.125h-15.625v-3.125zm-12.5-4.6875v-3.125h17.188v3.125zm25 7.8125h-9.375v-3.125h9.375zm0-7.8125h-4.6875v-3.125h4.6875zm-37.5-21.875h31.25v3.125h-31.25zm-6.25 10.938h43.75v3.125h-43.75zm0 7.8125h15.625v3.125h-15.625zm0 7.8125h10.938v3.125h-10.938zm0 7.8125h12.5v3.125h-12.5zm0 7.8125h43.75v3.125h-43.75zm9.375 26.562h-9.375v-3.125h9.375zm23.438 0h-20.312v-3.125h20.312zm0-7.8125h-32.812v-3.125h32.812zm0-7.8125h-32.812v-3.125h32.812z"/>
 </g>
</svg>
