<?xml version="1.0" encoding="UTF-8"?>
<svg fill="#F3AD56" width="100pt" height="100pt" version="1.1" viewBox="0 0 100 100" xmlns="http://www.w3.org/2000/svg">
 <g>
  <path d="m59.375 28.125c-3.4531 0-6.25-2.7969-6.25-6.25v-15.625h-31.25c-5.1758 0-9.375 4.1992-9.375 9.375v68.75c0 5.1758 4.1992 9.375 9.375 9.375h50c-6.6992 0-12.887-3.5742-16.238-9.375-3.3477-5.8008-3.3477-12.949 0-18.75 3.3516-5.8008 9.5391-9.375 16.238-9.375 1.0469-0.003906 2.0938 0.09375 3.125 0.28125v-28.406zm-12.5 37.5h-18.75c-1.7266 0-3.125-1.3984-3.125-3.125s1.3984-3.125 3.125-3.125h18.75c1.7266 0 3.125 1.3984 3.125 3.125s-1.3984 3.125-3.125 3.125zm12.5-12.5h-31.25c-1.7266 0-3.125-1.3984-3.125-3.125s1.3984-3.125 3.125-3.125h31.25c1.7266 0 3.125 1.3984 3.125 3.125s-1.3984 3.125-3.125 3.125zm0-12.5h-31.25c-1.7266 0-3.125-1.3984-3.125-3.125s1.3984-3.125 3.125-3.125h31.25c1.7266 0 3.125 1.3984 3.125 3.125s-1.3984 3.125-3.125 3.125z"/>
  <path d="m59.375 8.0938v13.781h13.781z"/>
  <path d="m71.875 59.375c-4.1445 0-8.1172 1.6445-11.047 4.5781-2.9336 2.9297-4.5781 6.9023-4.5781 11.047s1.6445 8.1172 4.5781 11.047c2.9297 2.9336 6.9023 4.5781 11.047 4.5781s8.1172-1.6445 11.047-4.5781c2.9336-2.9297 4.5781-6.9023 4.5781-11.047s-1.6445-8.1172-4.5781-11.047c-2.9297-2.9336-6.9023-4.5781-11.047-4.5781zm7.9688 15.094-9.375 6.25c-1.2344 0.82812-2.8828 0.67188-3.9375-0.375l-3.125-3.125c-1.0625-1.2383-0.99219-3.0898 0.16406-4.2422 1.1523-1.1562 3.0039-1.2266 4.2422-0.16406l1.3125 1.3125 7.25-4.8125c0.6875-0.51562 1.5547-0.72656 2.4023-0.58203 0.84766 0.14062 1.5977 0.62891 2.0742 1.3438 0.47656 0.71094 0.64063 1.5898 0.44922 2.4297-0.19141 0.83594-0.71875 1.5586-1.457 1.9961z"/>
 </g>
</svg>
