<?xml version="1.0" encoding="UTF-8"?>
<svg fill="#F3AD56" width="100pt" height="100pt" version="1.1" viewBox="0 0 100 100" xmlns="http://www.w3.org/2000/svg">
 <g>
  <path d="m96.363 65.758c-1.8164-1.3633-4.5469-1.5156-6.9688-0.60547l-17.574 6.3633c-0.15234-1.5156-0.75781-2.7266-1.668-3.6367-1.8164-1.8164-4.2422-1.668-4.3945-1.668h-16.668c-2.7266-1.2109-5-2.2734-6.9688-3.1836-4.5469-2.2734-7.5742-3.6367-12.121-3.6367h-3.6367v28.332l3.9414 0.003906c4.0898 1.2109 7.5742 2.5742 10.758 3.7891 7.7266 3.1836 13.637 5.3047 21.211 1.3633l32.121-16.516c4.2422-2.2734 5.6055-8.0312 1.9688-10.605z"/>
  <path d="m21.668 57.574h-14.094c-0.75781 0-1.3633 0.60547-1.5156 1.2109l-4.543 30.91c0 0.45313 0 0.91016 0.30469 1.2109 0.30469 0.30469 0.75781 0.45312 1.2109 0.45312h18.637c0.91016 0 1.5156-0.75781 1.5156-1.5156v-30.754c0-0.90625-0.60938-1.5156-1.5156-1.5156zm-10.305 27.73c-0.60547 0.60547-1.5156 0.60547-2.1211 0-0.60547-0.60547-0.60547-1.5156 0-2.1211 0.60547-0.60547 1.5156-0.60547 2.1211 0 0.60547 0.60547 0.60547 1.6641 0 2.1211zm5.7578 0c-0.60547 0.60547-1.5156 0.60547-2.1211 0-0.60547-0.60547-0.60547-1.5156 0-2.1211 0.60547-0.60547 1.668-0.60547 2.1211 0 0.60547 0.60547 0.45312 1.6641 0 2.1211z"/>
  <path d="m31.816 39.09 0.15234-2.1211c1.0625-0.30469 1.9688-0.75781 3.0312-1.2109l1.5156 1.3633c0.60547 0.60547 1.5156 0.45312 2.1211 0l3.4844-3.4844c0.60547-0.60547 0.60547-1.5156 0-2.1211l-1.3633-1.5156c0.45313-0.91016 0.91016-1.9688 1.2109-3.0312l2.1211-0.15234c0.75781 0 1.5156-0.75781 1.5156-1.5156v-5c0-0.75781-0.60547-1.5156-1.5156-1.5156l-2.1211-0.15234c-0.30469-1.0625-0.75781-2.1211-1.2109-3.0312l1.3633-1.5156c0.60547-0.60547 0.45312-1.5156 0-2.1211l-3.4844-3.6367c-0.60547-0.60547-1.5156-0.60547-2.1211 0l-1.5156 1.3633c-0.91016-0.45312-1.9688-0.91016-3.0312-1.2109l-0.15234-1.9648c0-0.75781-0.75781-1.5156-1.5156-1.5156h-5c-0.75781 0-1.5156 0.60547-1.5156 1.5156l-0.15234 2.1211c-1.0625 0.30469-1.9688 0.75781-3.0312 1.2109l-1.5156-1.3633c-0.60547-0.60547-1.5156-0.45312-2.1211 0l-3.4805 3.6367c-0.60547 0.60547-0.60547 1.5156 0 2.1211l1.3633 1.5156c-0.45312 0.91016-0.91016 1.9688-1.2109 3.0312l-2.1211 0.15234c-0.75781 0-1.5156 0.75781-1.5156 1.5156v5c0 0.75781 0.60547 1.5156 1.5156 1.5156l2.1211-0.003906c0.30469 1.0625 0.75781 1.9688 1.2109 3.0312l-1.3633 1.5156c-0.60547 0.60547-0.60547 1.5156 0 2.1211 0.15234 0.15234 3.332 3.332 3.4844 3.4844 0.45312 0.45312 0.91016 0.60547 1.5156 0.45312 0.30469-0.15234 0.60547-0.30469 0.75781-0.45312l1.3633-1.3633c0.91016 0.60547 1.9688 0.91016 3.0312 1.2109l0.15234 2.1211c0 0.75781 0.75781 1.5156 1.5156 1.5156h5c0.75781-0.15234 1.5117-0.75781 1.5117-1.5156zm-9.3906-16.211c0-3.1836 2.5742-5.3047 5.4531-5.3047 3.9375 0 6.5156 4.2422 4.6953 7.7266-0.91016 1.8164-2.7266 2.8789-4.6953 2.8789-3.0312 0.003906-5.4531-2.4219-5.4531-5.3008z"/>
  <path d="m50.453 42.273 3.4844 0.15234c0.45312 1.8164 1.2109 3.4844 2.1211 5l-2.4219 2.5742c-0.60547 0.60547-0.45312 1.5156 0 2.1211l5.1523 5.1523c0.60547 0.60547 1.5156 0.60547 2.1211 0l2.5742-2.2734c1.5156 0.91016 3.1836 1.5156 5 2.1211l0.15234 3.4844c0 0.75781 0.75781 1.5156 1.5156 1.5156h7.2734c0.75781 0 1.5156-0.60547 1.5156-1.5156l0.15234-3.4844c1.8164-0.45312 3.4844-1.2109 5-2.1211l2.5742 2.2734c0.60547 0.60547 1.5156 0.60547 2.1211 0l5.1523-5.1523c0.60547-0.60547 0.60547-1.5156 0-2.1211l-2.4258-2.5742c0.91016-1.5156 1.668-3.1836 2.1211-5l3.4844-0.15234c0.75781 0 1.5156-0.75781 1.5156-1.5156v-7.2734c0-0.75781-0.60547-1.5156-1.5156-1.5156l-3.4844-0.15234c-0.45312-1.8164-1.2109-3.4844-2.1211-5l2.4258-2.5742c0.60547-0.60547 0.45312-1.5156 0-2.1211l-5.1523-5.1523c-0.60547-0.60547-1.5156-0.60547-2.1211 0l-2.5742 2.4258c-1.5156-0.91016-3.1836-1.668-5-2.1211l-0.15234-3.4844c0-0.75781-0.75781-1.5156-1.5156-1.5156h-7.2734c-0.75781 0-1.5156 0.60547-1.5156 1.5156l-0.15234 3.4844c-1.8164 0.45312-3.4844 1.2109-5 2.1211l-2.5742-2.4258c-0.60547-0.60547-1.5156-0.45312-2.1211 0l-5.1523 5.1523c-0.60547 0.60547-0.60547 1.5156 0 2.1211l2.4258 2.5742c-0.91016 1.5156-1.668 3.1836-2.1211 5l-3.4844 0.15234c-0.75781 0-1.5156 0.75781-1.5156 1.5156v7.2734c0.14844 0.91016 0.75391 1.5156 1.5117 1.5156zm23.336-14.848c5.4531 0 9.8477 4.3945 9.8477 9.8477 0 5.4531-4.3945 9.8477-9.8477 9.8477-5.4531 0-9.8477-4.3945-9.8477-9.8477-0.003906-5.457 4.3906-9.8477 9.8477-9.8477z"/>
 </g>
</svg>
