<?xml version="1.0" encoding="UTF-8"?>
<svg fill="#F3AD56" width="100pt" height="100pt" version="1.1" viewBox="0 0 100 100" xmlns="http://www.w3.org/2000/svg">
 <g>
  <path d="m50 98.438c-26.719 0-48.438-21.719-48.438-48.438s21.719-48.438 48.438-48.438 48.438 21.719 48.438 48.438-21.719 48.438-48.438 48.438zm0-94.531c-25.391 0-46.094 20.703-46.094 46.094s20.703 46.094 46.094 46.094 46.094-20.703 46.094-46.094-20.703-46.094-46.094-46.094z"/>
  <path d="m45.703 45.547 0.078125 3.2812c0 0.078125 0.078125 0.15625 0.15625 0.23438h0.15625 0.15625l2.9688-1.6406 0.078125-0.078125 12.891-20c0.078125-0.078125 0.078125-0.15625 0-0.23438 0-0.078125-0.078125-0.15625-0.15625-0.15625l-2.9688-1.6406c-0.15625-0.078125-0.3125 0-0.39062 0.078125l-6.1719 9.6094-6.7188 10.391c-0.078125 0.078125-0.078125 0.078125-0.078125 0.15625z"/>
  <path d="m44.141 25.781h6.25l-7.7344-6.875v5.4688c0 0.78125 0.70312 1.4062 1.4844 1.4062z"/>
  <path d="m50.703 57.969v-9.6094l-0.078125 0.15625c-0.078125 0.15625-0.23438 0.23438-0.39062 0.39062l-4.6875 2.6562c-0.15625 0.078125-0.3125 0.15625-0.54688 0.15625-0.15625 0-0.39062-0.078125-0.54688-0.15625h-20.156c-0.625 0-1.0938-0.46875-1.0938-1.0938s0.46875-1.0938 1.0938-1.0938h19.609l-0.078125-3.5156h-0.15625-19.375c-0.625 0-1.0938-0.46875-1.0938-1.0938s0.46875-1.0938 1.0938-1.0938h19.375c0.3125 0 0.54688 0.078125 0.70312 0.3125l6.3281-9.8438v-6.7969h-6.5625c-1.7188 0-3.0469-1.3281-3.0469-3.0469v-5.5469h-20.156c-1.1719 0-2.1875 0.9375-2.1875 2.1094v37.109c0 1.1719 1.0156 2.1094 2.1875 2.1094h27.578c1.25 0.078125 2.1875-0.9375 2.1875-2.1094zm-5.5469-19.375c0.625 0 1.0938 0.46875 1.0938 1.0938s-0.46875 1.0938-1.0938 1.0938h-20.859c-0.625 0-1.0938-0.46875-1.0938-1.0938s0.46875-1.0938 1.0938-1.0938zm-7.1094-4.1406c0 0.625-0.46875 1.0938-1.0938 1.0938h-12.656c-0.625 0-1.0938-0.46875-1.0938-1.0938s0.46875-1.0938 1.0938-1.0938h12.656c0.625 0 1.0938 0.46875 1.0938 1.0938zm-15-10.547c0-0.3125 0.15625-0.625 0.39062-0.85938l4.375-3.4375c0.39062-0.3125 0.9375-0.3125 1.3281 0l4.375 3.4375c0.23438 0.23438 0.39062 0.54688 0.39062 0.85938v5.5469c0 0.625-0.46875 1.0938-1.0938 1.0938h-8.6719c-0.625 0-1.0938-0.46875-1.0938-1.0938zm7.4219 32.812h-6.1719c-0.625 0-1.0938-0.46875-1.0938-1.0938s0.46875-1.0938 1.0938-1.0938h6.1719c0.625 0 1.0938 0.46875 1.0938 1.0938s-0.46875 1.0938-1.0938 1.0938zm9.0625 0h-5.3906c-0.625 0-1.0938-0.46875-1.0938-1.0938s0.46875-1.0938 1.0938-1.0938h5.3906c0.625 0 1.0938 0.46875 1.0938 1.0938s-0.46875 1.0938-1.0938 1.0938z"/>
  <path d="m73.125 65h-1.1719c-2.1094-1.1719-3.6719-2.5781-4.4531-4.2969-0.3125-0.54688-0.625-1.4844-1.0156-2.4219-0.78125-1.9531-1.25-3.125-1.6406-3.6719l-0.15625-0.23438-0.3125-0.078125c-0.3125-0.078125-0.54688-0.15625-0.70312-0.15625h-0.23438c-0.85938 0.078125-1.6406 0.9375-1.9531 2.0312-0.3125 1.4062-0.54688 3.5156 0.3125 5.9375 0.39062 0.9375 0.9375 1.875 1.5625 2.6562l0.078125 0.078125h-0.078125-11.25c-1.3281 0-2.3438 0.85938-2.4219 1.875-0.078125 0.46875 0.15625 0.9375 0.46875 1.3281 0.46875 0.46875 1.0938 0.78125 1.9531 0.85938h1.4062c-0.70312 0-1.4062 0.3125-1.875 0.78125-0.39062 0.39062-0.54688 0.85938-0.46875 1.4062 0.078125 1.0938 1.1719 1.875 2.4219 1.875h1.6406c-0.70312 0-1.4062 0.3125-1.875 0.78125-0.39062 0.39062-0.54688 0.85938-0.46875 1.4062 0.078125 1.0938 1.1719 1.875 2.4219 1.875h1.4062c-0.70312 0-1.4062 0.3125-1.875 0.78125-0.39062 0.39062-0.54688 0.85938-0.46875 1.4062 0.078125 1.0938 1.1719 1.875 2.4219 1.875h17.578v-15l-0.078125-1.0938z"/>
  <path d="m80.625 64.922h-3.8281c-0.3125 0-0.625 0.3125-0.625 0.70312v14.922c0 0.39062 0.23438 0.70312 0.625 0.70312h3.8281c0.3125 0 0.625-0.3125 0.625-0.70312v-14.922c0-0.39062-0.3125-0.70312-0.625-0.70312zm-1.0156 13.594c0 0.46875-0.39062 0.78125-0.85938 0.78125s-0.85938-0.39062-0.85938-0.78125 0.39062-0.78125 0.85938-0.78125c0.54688-0.078125 0.85938 0.3125 0.85938 0.78125z"/>
 </g>
</svg>
