<?xml version="1.0" encoding="UTF-8"?>
<svg fill="#F3AD56" width="100pt" height="100pt" version="1.1" viewBox="0 0 100 100" xmlns="http://www.w3.org/2000/svg">
 <path d="m5.9727 2.7305v68.719h34.473v0.003906c-2.25-3.4297-3.3477-7.4844-3.1328-11.574l-22.562-0.039062c-0.33594 0.003906-0.65625-0.12891-0.89453-0.36328-0.23828-0.23437-0.37109-0.55469-0.37109-0.89062 0.003906-0.33203 0.13672-0.65234 0.375-0.88672s0.55859-0.36719 0.89453-0.35938l22.844 0.039062c0.35547-1.9219 1-3.7734 1.9141-5.4961l-24.762-0.042968c-0.33594 0.003906-0.65625-0.12891-0.89453-0.36328-0.23828-0.23437-0.37109-0.55469-0.37109-0.89062 0.003906-0.33203 0.13672-0.65234 0.375-0.88672s0.55859-0.36719 0.89453-0.35938l26.355 0.046875c0.40625-0.5625 0.84375-1.0977 1.3086-1.6094 1.4648-1.5703 3.1836-2.8789 5.082-3.8828l-32.75-0.054687c-0.33594 0.003906-0.65625-0.12891-0.89453-0.36328-0.23438-0.23437-0.37109-0.55469-0.36719-0.89062 0-0.33203 0.13281-0.65234 0.37109-0.88672 0.23828-0.23828 0.55859-0.36719 0.89453-0.35938l34.73 0.0625v-0.003906c0.64844-0.007813 1.1953 0.48437 1.2578 1.1289 2.4297-0.76562 4.9844-1.043 7.5195-0.81641v-38.977h-52.289zm8.7812 10.605 34.73 0.0625c0.33203-0.003907 0.65625 0.125 0.89062 0.36328 0.23828 0.23438 0.37109 0.55469 0.37109 0.88672 0 0.33594-0.13281 0.65625-0.37109 0.89062-0.23828 0.23438-0.5625 0.36328-0.89453 0.35938l-34.73-0.0625c-0.33594 0.003906-0.65625-0.125-0.89453-0.35938-0.23828-0.23437-0.37109-0.55859-0.37109-0.89062 0.003906-0.33594 0.13672-0.65625 0.375-0.89063 0.23828-0.23437 0.55859-0.36328 0.89453-0.35937zm0 20 34.73 0.0625c0.33203-0.003907 0.65625 0.125 0.89062 0.36328 0.23828 0.23438 0.37109 0.55469 0.37109 0.88672 0 0.33594-0.13281 0.65625-0.37109 0.89062-0.23828 0.23438-0.5625 0.36328-0.89453 0.35938l-34.73-0.0625c-0.33594 0.003906-0.65625-0.125-0.89453-0.35938-0.23828-0.23437-0.37109-0.55859-0.37109-0.89062 0.003906-0.33594 0.13672-0.65625 0.375-0.89063 0.23828-0.23437 0.55859-0.36328 0.89453-0.35937zm41.41 10.867c-4.5078 0.10156-8.7852 2.0234-11.855 5.3281-3.0117 3.2422-4.6133 7.5508-4.4492 11.973 0.16016 4.4258 2.0742 8.6016 5.3164 11.613 3.1055 2.8828 7.1875 4.4766 11.426 4.4609 4.2383-0.015625 8.3086-1.6445 11.387-4.5547 0.019531 0.023437 0.042969 0.042968 0.0625 0.0625l2.7852 2.7461c-0.32813 0.64453-0.40625 1.2305-0.10547 1.5117l20.562 19.105c0.46094 0.42578 1.5703-0.027344 2.4883-1.0156 0.91797-0.98828 1.2891-2.1289 0.82812-2.5547l-20.562-19.105c-0.30078-0.28125-0.88672-0.15234-1.5117 0.22656l-2.7305-2.6953c-0.046876-0.042969-0.09375-0.085938-0.14453-0.12109 2.582-3.293 3.832-7.4336 3.5039-11.605-0.32422-4.1719-2.207-8.0664-5.2695-10.914-3.1797-2.957-7.3867-4.5547-11.73-4.4609zm10.176 8.6445c0.51562-0.007812 0.98047 0.30469 1.1758 0.78125 0.19141 0.48047 0.070313 1.0273-0.30469 1.3789l-14.098 13.574v0.003907c-0.25781 0.24609-0.60938 0.37109-0.96484 0.34375-0.35938-0.027344-0.68359-0.20703-0.90234-0.49219l-5.5195-7.3281h0.003907c-0.21094-0.26172-0.30469-0.60156-0.26172-0.93359 0.039062-0.33594 0.21484-0.64062 0.48438-0.84375 0.27344-0.20312 0.61328-0.28906 0.94531-0.23828 0.33203 0.054688 0.63281 0.23828 0.82812 0.51172l4.668 6.1992 13.078-12.598v0.003907c0.23047-0.23047 0.54297-0.35938 0.86719-0.36328z"/>
</svg>
