<?xml version="1.0" encoding="UTF-8"?>
<svg fill="#F3AD56" width="100pt" height="100pt" version="1.1" viewBox="0 0 100 100" xmlns="http://www.w3.org/2000/svg">
 <g>
  <path d="m11.305 74.684v-68.703h34.848v19.301c0 1.1875 0.95703 2.1406 2.1406 2.1406h19.301v20.77c0.58594-0.054687 1.168-0.070312 1.7695-0.070312 0.63672 0 1.293 0.019531 1.9141 0.070312v-22.824c0-0.39063-0.16016-0.77734-0.44141-1.0625l-21.57-21.566c-0.28516-0.28516-0.67188-0.44141-1.0625-0.44141h-37.945c-1.4531 0-2.6367 1.1875-2.6367 2.6367v70.613c0 1.5391 1.2578 2.7969 2.8164 2.7969l32.633 0.019531c-0.17578-1.2031-0.26562-2.4258-0.26562-3.6836zm38.512-66.188 15.246 15.246h-15.246z"/>
  <path d="m58.285 42.379c0-0.88672-0.71875-1.6094-1.6094-1.6094h-34.469c-0.88672 0-1.6094 0.71875-1.6094 1.6094 0 0.88672 0.71875 1.6094 1.6094 1.6094h34.469c0.89062 0 1.6094-0.72266 1.6094-1.6094z"/>
  <path d="m20.602 59.719c0 0.90234 0.72656 1.6133 1.6133 1.6133h24.203c0.65625-1.1328 1.3984-2.1953 2.2148-3.2031l-26.422-0.003906c-0.88672 0-1.6094 0.71094-1.6094 1.5938z"/>
  <path d="m69.359 51.664c-12.691 0-23.02 10.324-23.02 23.02 0 12.691 10.324 23.02 23.02 23.02 12.691 0 23.02-10.324 23.02-23.02 0-12.691-10.324-23.02-23.02-23.02zm0 42.496c-10.738 0-19.477-8.7383-19.477-19.477 0-10.738 8.7383-19.477 19.477-19.477s19.477 8.7383 19.477 19.477c0 10.742-8.7344 19.477-19.477 19.477z"/>
  <path d="m80.59 63.453c-0.69141-0.69141-1.8125-0.69141-2.5039 0l-8.7266 8.7266-8.7266-8.7266c-0.69141-0.69141-1.8125-0.69141-2.5039 0s-0.69141 1.8125 0 2.5039l8.7266 8.7266-8.7266 8.7266c-0.69141 0.69141-0.69141 1.8125 0 2.5039 0.34766 0.34766 0.80078 0.51953 1.25 0.51953 0.45312 0 0.90625-0.17188 1.25-0.51953l8.7266-8.7266 8.7266 8.7266c0.34766 0.34766 0.80078 0.51953 1.25 0.51953 0.45312 0 0.90625-0.17188 1.25-0.51953 0.69141-0.69141 0.69141-1.8125 0-2.5039l-8.7266-8.7266 8.7266-8.7266c0.69922-0.69141 0.69922-1.8125 0.007813-2.5039z"/>
 </g>
</svg>
