<?xml version="1.0" encoding="UTF-8"?>
<svg fill="#E9B065" width="100pt" height="100pt" version="1.1" viewBox="0 0 100 100" xmlns="http://www.w3.org/2000/svg">
 <g>
  <path d="m75.566 14.785h-8.9844l2.1836 4.582c0.75 1.5156 0.64844 3.3672-0.25 4.8008-0.91797 1.4648-2.5 2.3516-4.25 2.3516l-28.531-0.003906c-1.75 0-3.332-0.86719-4.25-2.332-0.89844-1.4492-0.98438-3.3008-0.25-4.832l2.1836-4.5664h-8.9844c-2.9844 0-5.3984 2.4336-5.3984 5.418v64.668c0 2.9844 2.418 5.418 5.3984 5.418h51.133c2.9844 0 5.3984-2.4336 5.3984-5.418v-64.672c0-2.9844-2.4141-5.4141-5.3984-5.4141zm-33.066 56.566-8 8c-0.30078 0.31641-0.73438 0.5-1.168 0.5-0.44922 0-0.86719-0.18359-1.1836-0.5l-4.2148-4.2148c-0.66797-0.64844-0.66797-1.6992 0-2.3516 0.64844-0.64844 1.6992-0.64844 2.3516 0l3.0352 3.0352 6.8164-6.8164c0.64844-0.64844 1.6992-0.64844 2.3672 0 0.64453 0.64453 0.64453 1.6953-0.003906 2.3477zm0-19.535-8 8c-0.30078 0.31641-0.73438 0.48438-1.168 0.48438-0.44922 0-0.86719-0.16797-1.1836-0.48438l-4.2148-4.2148c-0.66797-0.64844-0.66797-1.7148 0-2.3672 0.64844-0.64844 1.6992-0.64844 2.3516 0l3.0352 3.0508 6.8164-6.832c0.64844-0.64844 1.6992-0.64844 2.3672 0 0.64453 0.64844 0.64453 1.7148-0.003906 2.3633zm0-18.734-8 8c-0.30078 0.31641-0.73438 0.5-1.168 0.5-0.44922 0-0.86719-0.18359-1.1836-0.5l-4.2148-4.2148c-0.66797-0.64844-0.66797-1.6992 0-2.3516 0.64844-0.64844 1.6992-0.64844 2.3516 0l3.0352 3.0352 6.8164-6.8164c0.64844-0.64844 1.6992-0.64844 2.3672 0 0.64453 0.64844 0.64453 1.6992-0.003906 2.3477zm28.398 46.453h-22.113c-0.91797 0-1.668-0.73438-1.668-1.668 0-0.91797 0.75-1.668 1.668-1.668h22.113c0.91797 0 1.668 0.75 1.668 1.668 0 0.93359-0.75 1.668-1.668 1.668zm0-7.3867h-22.113c-0.91797 0-1.668-0.75-1.668-1.668 0-0.93359 0.75-1.668 1.668-1.668l22.113 0.003906c0.91797 0 1.668 0.73438 1.668 1.668 0 0.91406-0.75 1.6641-1.668 1.6641zm0-12.148h-22.113c-0.91797 0-1.668-0.75-1.668-1.668s0.75-1.668 1.668-1.668l22.113 0.003907c0.91797 0 1.668 0.75 1.668 1.668 0 0.91406-0.75 1.6641-1.668 1.6641zm0-7.3984h-22.113c-0.91797 0-1.668-0.73437-1.668-1.668 0-0.91797 0.75-1.668 1.668-1.668h22.113c0.91797 0 1.668 0.75 1.668 1.668 0 0.93359-0.75 1.668-1.668 1.668zm0-12.137h-22.113c-0.91797 0-1.668-0.75-1.668-1.668s0.75-1.668 1.668-1.668l22.113 0.003906c0.91797 0 1.668 0.75 1.668 1.668 0 0.91406-0.75 1.6641-1.668 1.6641zm0-7.3984h-22.113c-0.91797 0-1.668-0.75-1.668-1.668 0-0.91797 0.75-1.668 1.668-1.668l22.113 0.003906c0.91797 0 1.668 0.75 1.668 1.668 0 0.91406-0.75 1.6641-1.668 1.6641z"/>
  <path d="m35.734 23.184h28.535c0.58203 0 1.1172-0.28516 1.418-0.76562 0.30078-0.48438 0.33203-1.1016 0.082031-1.6172l-4.8516-10.133c-0.26562-0.56641-0.85156-0.94922-1.5-0.94922l-18.836-0.003906c-0.64844 0-1.2344 0.38281-1.5 0.94922l-4.8477 10.137c-0.25 0.51562-0.21484 1.1328 0.082031 1.6172 0.30078 0.48047 0.83203 0.76562 1.418 0.76562z"/>
 </g>
</svg>
