<?xml version="1.0" encoding="UTF-8"?>
<svg fill="#F3AD56" width="100pt" height="100pt" version="1.1" viewBox="0 0 100 100" xmlns="http://www.w3.org/2000/svg">
 <path d="m17.531 19.539l-17.531 36.234 9.6523 4.6289c2.2461 1.1094 4.9219 0.17188 6.0039-2.0664l13.594-28.113c1.082-2.2461 0.13672-4.9297-2.0977-6.0391l-9.6172-4.6445zm64.953 0.13672l-10.445 5.043c-1.7969 0.89062-2.5586 3.0391-1.668 4.8359l14.352 29.73c0.89062 1.7969 3.0391 2.543 4.8359 1.6523l10.441-5.0234-17.516-36.234zm-50.895 11.477l-13.711 28.406 6.9336 3.3398c0.77734-2.0156 2.7656-3.4258 5.0938-3.4258 2.3516 0 4.3438 1.4922 5.1445 3.5625 0.46875-0.14062 0.96094-0.22266 1.4609-0.22266 2.3789 0 4.3789 1.5 5.1797 3.5977 0.49219-0.11328 0.96094-0.20703 1.4297-0.20703 2.2891 0 4.2656 1.375 5.1289 3.3359 0.55469-0.18359 1.1523-0.32812 1.8242-0.32812 3.0664 0 5.5234 2.4492 5.5234 5.5234 0 0.98828-0.27344 1.9531-0.73828 2.7539l4.043 1.9102 1.4102 0.65234c1.9375 0.96875 4.3047 0.14062 5.2148-1.8242 0.96875-1.9648 0.14062-4.3125-1.8242-5.2812l-4.7852-1.4102 0.10156-0.32812 4.6797 1.7383c1.9648 0.96094 4.3125 0.14063 5.2812-1.8242 0.93359-1.9062 0.14844-4.2227-1.7539-5.2305l0.12109 0.015625c1.2969 0.58203 2.7539 0.39062 3.8555-0.41406 0.50391-0.35938 0.92969-0.85547 1.2031-1.4609 0.94141-1.9102 0.15234-4.1484-1.6172-5.1445l0.15625 0.035156c1.875 0.69531 4.0039-0.13672 4.9219-1.9609 0.91406-1.9648 0.11328-4.3477-1.8242-5.2656l-1.4102-0.6875-2.6484-1.2734-10.188-4.9023-7.9844-3.8711-3.3555 6.5898c-1.3828 2.6328-4.5234 3.6172-7.1758 2.3242-1.2969-0.66016-2.2773-1.7891-2.7539-3.1992-0.44141-1.375-0.30078-2.8789 0.35938-4.1797l3.3203-6.1953-0.050781-0.050781 1.6016-3.0469c-3.0664-2.043-12.164-2.0469-12.164-2.0469zm17.758 2.0312c-2.1328-0.14062-4.168 0.99609-5.1602 2.8906l-0.48047 0.89453-2.0977 4.043-1.2383 2.3047c-0.41406 0.79297-0.52344 1.75-0.24219 2.6484 0 0.070312 0 0.10156 0.035156 0.17188 0.10547 0.30859 0.23828 0.59766 0.37891 0.84375 0.34375 0.58203 0.86328 1.0352 1.4453 1.3438 0.86328 0.41406 1.7969 0.48828 2.6484 0.24219 0.61719-0.17578 1.2109-0.48828 1.6875-0.96484 0.21094-0.23828 0.41016-0.51562 0.58594-0.82422l0.27344-0.55078 3.0273-6.0391c0.44922-0.83594 1.4414-1.1875 2.3047-0.77344l22.23 10.719c2.7852 1.3398 3.9648 4.7344 2.6133 7.5547v0.035156c-0.6875 1.3398-1.8164 2.3555-3.1641 2.8203 0.44922 1.3125 0.38281 2.6914-0.13672 3.9219l7.5195-4.8359-12.215-25.172-20.012-1.2734zm-41.5 17.449c1.25 0 2.2383 0.99609 2.2383 2.2383 0.011718 1.25-0.98438 2.2383-2.2383 2.2383-1.2422 0-2.2383-0.98438-2.2383-2.2383 0-1.2422 0.99609-2.2383 2.2383-2.2383zm82.828 2.2383c1.25 0 2.2383 0.98438 2.2383 2.2383 0 1.2422-0.99609 2.2383-2.2383 2.2383-1.2422 0-2.2383-0.99609-2.2383-2.2383 0-1.25 0.99609-2.2383 2.2383-2.2383zm-24.465 4.3008l4.5078 1.6875-4.6289-1.3594zm-36.32 4.0078c-2.1055 0-3.8203 1.7148-3.8203 3.8203s1.7148 3.8008 3.8203 3.8008c1.2773 0 2.3398-0.64844 3.0273-1.6172-0.125 0.37109-0.22266 0.74609-0.22266 1.1523 0 2.1055 1.7148 3.8008 3.8203 3.8008 1.2852 0 2.375-0.66406 3.0625-1.6523-0.14062 0.40625-0.25781 0.80859-0.25781 1.2578 0 2.1055 1.707 3.8008 3.8203 3.8008 1.4883 0 2.7461-0.875 3.3711-2.1172-0.14844 0.41406-0.25781 0.84766-0.25781 1.3086 0 2.1055 1.7148 3.8203 3.8203 3.8203s3.8008-1.707 3.8008-3.8203c-0.015625-2.1055-1.7148-3.8203-3.8203-3.8203-1.4883 0-2.7461 0.89063-3.3711 2.1328 0.16016-0.40625 0.25781-0.84766 0.25781-1.3086 0-2.1055-1.6953-3.8203-3.8008-3.8203-1.2852 0-2.3945 0.67578-3.0781 1.6523 0.14062-0.39453 0.25781-0.78906 0.25781-1.2383 0-2.1055-1.6953-3.8203-3.8008-3.8203-1.2773 0-2.3594 0.67578-3.0469 1.6328 0.125-0.37109 0.22266-0.73828 0.22266-1.1523 0-2.0977-1.6953-3.8203-3.8008-3.8203zm32.777 2.9922l4.543 1.7188-4.6641-1.4102z"/>
</svg>
