<?xml version="1.0" encoding="UTF-8"?>
<svg fill="#E9B065" width="100pt" height="100pt" version="1.1" viewBox="0 0 100 100" xmlns="http://www.w3.org/2000/svg">
 <g>
  <path d="m91.535 53.297-7.4688 26.176c-1.0977 3.8438-4.6562 6.5273-8.6484 6.5273h-40.418c-1.6562 0-3-1.3438-3-3v-42c0-0.64453 0.20703-1.2734 0.59375-1.793l16.176-21.719c1.7969-2.2461 4.3789-3.4883 7.1523-3.4883 5.0078 0 9.0781 4.0703 9.0781 9.0781v14.922h15.008c3.793 0 7.2812 1.7383 9.5664 4.7695 2.2891 3.0312 3.0039 6.8711 1.9609 10.527z"/>
  <path d="m23 38h-12c-1.6562 0-3 1.3438-3 3v42c0 1.6562 1.3438 3 3 3h12c1.6562 0 3-1.3438 3-3v-42c0-1.6562-1.3438-3-3-3zm-6 40.5c-2.4844 0-4.5-2.0156-4.5-4.5s2.0156-4.5 4.5-4.5 4.5 2.0156 4.5 4.5-2.0156 4.5-4.5 4.5z"/>
 </g>
</svg>
