<?xml version="1.0" encoding="UTF-8"?>
<svg fill="#E9B065" width="100pt" height="100pt" version="1.1" viewBox="0 0 100 100" xmlns="http://www.w3.org/2000/svg">
 <g>
  <path d="m8.4688 46.703 7.4688-26.176c1.0977-3.8438 4.6562-6.5273 8.6484-6.5273h40.418c1.6562 0 2.9961 1.3438 2.9961 3v42c0 0.64453-0.20312 1.2734-0.59375 1.793l-16.172 21.719c-1.7969 2.2461-4.3789 3.4883-7.1523 3.4883-5.0078 0-9.0781-4.0703-9.0781-9.0781v-14.922h-15.008c-3.793 0-7.2812-1.7383-9.5664-4.7695-2.2891-3.0312-3.0039-6.8711-1.9609-10.527z"/>
  <path d="m77.004 62h12c1.6562 0 2.9961-1.3438 2.9961-3v-42c0-1.6562-1.3398-3-2.9961-3h-12c-1.6562 0-3 1.3438-3 3v42c0 1.6562 1.3398 3 3 3zm6-40.5c2.4844 0 4.5 2.0156 4.5 4.5s-2.0156 4.5-4.5 4.5-4.5-2.0156-4.5-4.5 2.0156-4.5 4.5-4.5z"/>
 </g>
</svg>
